<?xml version="1.0" standalone="no"?>
<!DOCTYPE svg PUBLIC "-//W3C//DTD SVG 20010904//EN"
 "http://www.w3.org/TR/2001/REC-SVG-20010904/DTD/svg10.dtd">
<svg version="1.0" xmlns="http://www.w3.org/2000/svg"
 width="300.000000pt" height="168.000000pt" viewBox="0 0 300.000000 168.000000"
 preserveAspectRatio="xMidYMid meet">

<g transform="translate(0.000000,168.000000) scale(0.100000,-0.100000)"
fill="#000000" stroke="none">
<path d="M0 840 l0 -840 1223 0 1222 0 -45 40 c-24 21 -42 41 -39 45 7 6 152
-65 157 -77 2 -5 12 -8 23 -8 19 0 19 0 -1 22 -30 32 -17 34 34 4 35 -20 58
-26 107 -26 l62 0 -26 20 c-14 11 -32 18 -39 15 -17 -7 -54 30 -40 39 6 3 33
-5 61 -20 28 -14 55 -23 59 -20 5 3 23 -4 40 -15 18 -10 49 -19 70 -19 l37 0
-39 27 c-22 14 -69 41 -106 59 -37 19 -75 43 -85 54 -32 36 5 23 118 -40 60
-33 111 -60 114 -60 3 0 -18 19 -46 41 -29 23 -50 44 -47 47 3 3 12 0 19 -7 8
-6 22 -9 31 -5 9 3 27 -1 41 -10 13 -9 34 -16 45 -16 11 0 23 -7 26 -15 10
-24 24 -7 24 28 0 26 -6 36 -32 51 -46 27 -110 77 -104 83 2 2 26 -6 53 -20
91 -45 83 -114 83 724 l0 739 -1500 0 -1500 0 0 -840z m231 629 c30 -16 43
-27 29 -23 -37 9 -107 54 -87 54 2 0 28 -14 58 -31z m1430 -191 c264 -97 383
-397 257 -648 -53 -106 -198 -230 -269 -230 l-27 0 -4 100 c-2 60 -9 105 -16
112 -17 17 -15 28 6 28 38 0 94 23 126 50 64 56 85 200 40 269 -11 16 -17 42
-15 69 1 24 -1 52 -4 63 -8 25 -50 25 -90 1 -42 -25 -283 -24 -332 1 -18 9
-43 17 -57 17 -21 0 -26 -6 -32 -35 -3 -19 -4 -45 0 -58 3 -12 -3 -39 -14 -62
-10 -22 -22 -56 -25 -76 -6 -34 -4 -38 29 -58 20 -13 36 -24 36 -27 0 -5 -33
8 -47 19 -18 13 -17 -14 1 -57 9 -22 23 -36 40 -40 47 -12 154 -67 173 -89 9
-12 11 -16 3 -10 -22 20 -30 16 -46 -22 -13 -32 -18 -35 -55 -35 -36 0 -47 6
-86 45 -30 31 -52 45 -70 45 l-27 0 31 -33 c18 -17 37 -45 42 -60 13 -34 68
-60 119 -55 36 3 36 2 39 -37 2 -22 -1 -46 -6 -54 -27 -41 -176 46 -253 146
-60 79 -89 158 -96 255 -8 137 38 257 138 358 128 129 319 171 491 108z
m-1376 -218 c81 -35 136 -62 132 -66 -4 -5 -186 72 -197 84 -6 6 38 -6 65 -18z
m680 -88 c-3 -3 -11 0 -18 7 -9 10 -8 11 6 5 10 -3 15 -9 12 -12z m-492 1 c-7
-2 -19 -2 -25 0 -7 3 -2 5 12 5 14 0 19 -2 13 -5z m-222 -20 c13 -17 13 -17
-6 -3 -11 8 -22 16 -24 17 -2 2 0 3 6 3 6 0 17 -8 24 -17z m2368 -849 c14 -10
19 -20 13 -26 -6 -6 -20 0 -37 16 -31 29 -14 36 24 10z"/>
<path d="M1274 686 c25 -21 104 -52 111 -44 1 2 -30 18 -69 35 -63 29 -68 30
-42 9z"/>
<path d="M2875 94 c40 -31 61 -37 33 -10 -15 14 -33 26 -40 26 -8 -1 -5 -7 7
-16z"/>
<path d="M2950 44 c8 -8 23 -20 34 -26 16 -8 15 -4 -6 16 -30 28 -48 35 -28
10z"/>
</g>
</svg>
